<svg xmlns="http://www.w3.org/2000/svg" xmlns:xlink="http://www.w3.org/1999/xlink" version="1.1" x="0px" y="0px" viewBox="0 0 32 40" enable-background="new 0 0 32 32" xml:space="preserve"><path d="M25.693,24.941c-3.896-3.896-3.863-8.902-3.849-11.894l0.016-0.521c0-2.761-1.747-5.219-4.334-6.11  c-0.072-1.101-0.935-1.973-2.053-1.973s-1.926,0.872-1.999,1.973c-2.587,0.892-4.142,3.35-4.142,6.11v0.393  c0,2.823-0.192,8.08-4.134,12.022c-0.143,0.143-0.405,0.358-0.328,0.545s0.26,0.309,0.462,0.309h7.357c0,1,1.186,2.643,2.643,2.643  s2.643-1.643,2.643-2.643h7.357c0.202,0,0.388-0.122,0.465-0.309S25.836,25.083,25.693,24.941z M15.333,27.437  c-0.905,0-1.643-1.643-1.643-1.643h3.285C16.975,25.794,16.238,27.437,15.333,27.437z M6.47,24.794  c3.451-4.101,3.863-9.105,3.863-11.88v-0.389c0-2.448,1.43-4.613,3.792-5.266c0.242-0.067,0.172-0.345,0.137-0.594  c-0.005-0.036-0.012-0.072-0.012-0.11c0-0.614,0.499-1.113,1.113-1.113s1.113,0.499,1.113,1.113c0,0.045-0.008,0.087-0.018,0.149  c-0.036,0.249,0.119,0.487,0.362,0.555c2.362,0.652,4.012,2.817,4.012,5.266l-0.002,0.517c-0.015,2.937-0.038,7.721,3.363,11.752  H6.47z"/><text x="0" y="47" fill="#000000" font-size="5px" font-weight="bold" font-family="'Helvetica Neue', Helvetica, Arial-Unicode, Arial, Sans-serif">Created by Guilherme Simoes</text><text x="0" y="52" fill="#000000" font-size="5px" font-weight="bold" font-family="'Helvetica Neue', Helvetica, Arial-Unicode, Arial, Sans-serif">from the Noun Project</text></svg>